P3
2 3
255
50 50 100 50 50 200 
50 100 100 100 100 50 
100 100 50 50 100 100 
